<?xml version="1.0" encoding="utf-8"?>
<!-- Generator: Adobe Illustrator 18.0.0, SVG Export Plug-In . SVG Version: 6.00 Build 0)  -->
<!DOCTYPE svg PUBLIC "-//W3C//DTD SVG 1.1//EN" "http://www.w3.org/Graphics/SVG/1.1/DTD/svg11.dtd">
<svg version="1.1" xmlns="http://www.w3.org/2000/svg" xmlns:xlink="http://www.w3.org/1999/xlink" x="0px" y="0px"
	 viewBox="0 0 432 575.8" enable-background="new 0 0 432 575.8" xml:space="preserve">
<g id="Layer_1">
	<g>
		<g>
			<path fill="#732B85" d="M142.2,71.6H53.7V36.2h88.5V71.6z M142.2,118.8H53.7V83.4h88.5V118.8z M142.2,166H53.7v-35.4h88.5V166z
				 M142.2,213.2H53.7v-35.4h88.5V213.2z M142.2,260.4H53.7V225h88.5V260.4z M142.2,307.6H53.7v-35.4h88.5V307.6z M142.2,354.8H53.7
				v-35.4h88.5V354.8z M378.2,402H54.9c-0.8-3.9-1.2-7.9-1.2-11.8v-23.6h324.5V402z M378.2,449.2H112.7c-26,0-44.1-11.8-54.3-35.4
				h319.8V449.2z"/>
		</g>
		<text transform="matrix(0.9004 0 0 1 51.6538 540.7803)" font-family="'HelveticaNeue-Bold'" font-size="74">SENTINEL</text>
		<rect x="159.6" y="297.8" fill="none" width="251.1" height="143.8"/>
		<text transform="matrix(1 0 0 1 159.613 354.5783)"><tspan x="0" y="0" fill="#3E60AB" font-family="'AlienEncountersBold'" font-size="80.5">G</tspan><tspan x="53.1" y="0" fill="#0C8141" font-family="'AlienEncountersBold'" font-size="80.5">B</tspan><tspan x="106.3" y="0" fill="#F8EC14" font-family="'AlienEncountersBold'" font-size="80.5">T</tspan><tspan x="159.4" y="0" fill="#F68B20" font-family="'AlienEncountersBold'" font-size="80.5">Q</tspan></text>
	</g>
</g>
<g id="Layer_2" display="none">
	<g display="inline">
		<path d="M144,72H55.5V36.6H144V72z M144,119.2H55.5V83.8H144V119.2z M144,166.4H55.5V131H144V166.4z M144,213.6H55.5v-35.4H144
			V213.6z M144,260.8H55.5v-35.4H144V260.8z M144,308H55.5v-35.4H144V308z M144,355.2H55.5v-35.4H144V355.2z M380,402.4H56.7
			c-0.8-3.9-1.2-7.9-1.2-11.8V367H380V402.4z M380,449.6H114.5c-26,0-44.1-11.8-54.3-35.4H380V449.6z"/>
	</g>
	<text transform="matrix(0.9004 0 0 1 53.484 541.1547)" display="inline" font-family="'HelveticaNeue-Bold'" font-size="74">SENTINEL</text>
	<rect x="161.4" y="298.2" display="inline" fill="none" width="251.1" height="143.8"/>
	<text transform="matrix(1 0 0 1 161.4432 354.9527)" display="inline"><tspan x="0" y="0" fill="#3E60AB" font-family="'AlienEncountersBold'" font-size="80.5">G</tspan><tspan x="53.1" y="0" fill="#0C8141" font-family="'AlienEncountersBold'" font-size="80.5">B</tspan><tspan x="106.3" y="0" fill="#F8EC14" font-family="'AlienEncountersBold'" font-size="80.5">T</tspan><tspan x="159.4" y="0" fill="#F68B20" font-family="'AlienEncountersBold'" font-size="80.5">Q</tspan></text>
</g>
</svg>
